<svg xmlns="http://www.w3.org/2000/svg" viewBox="0 0 300 300" width="300" height="300">
  <defs>
    <linearGradient id="bgHw" x1="0" y1="0" x2="0" y2="1">
      <stop offset="0%" stop-color="#f0dbc9"/>
      <stop offset="100%" stop-color="#e0c0a0"/>
    </linearGradient>
    <linearGradient id="skinHw" x1="0" y1="0" x2="0" y2="1">
      <stop offset="0%" stop-color="#f2ceac"/>
      <stop offset="100%" stop-color="#dcab82"/>
    </linearGradient>
  </defs>
  <rect width="300" height="300" fill="url(#bgHw)"/>
  <ellipse cx="150" cy="68" rx="34" ry="26" fill="#3a2e22"/>
  <path d="M55,300 Q55,210 150,198 Q245,210 245,300 Z" fill="#5a4a5c"/>
  <path d="M115,300 L115,225 L150,248 L185,225 L185,300 Z" fill="#f2eee4"/>
  <path d="M55,300 Q80,240 115,225 L130,260 Z" fill="#4a3c4a"/>
  <path d="M245,300 Q220,240 185,225 L170,260 Z" fill="#4a3c4a"/>
  <rect x="132" y="168" width="36" height="42" fill="url(#skinHw)"/>
  <ellipse cx="150" cy="128" rx="57" ry="65" fill="url(#skinHw)"/>
  <path d="M96,118 Q92,58 150,54 Q208,58 204,118 Q202,82 150,80 Q98,82 96,118 Z" fill="#3a2e22"/>
  <ellipse cx="97" cy="132" rx="8" ry="12" fill="url(#skinHw)"/>
  <ellipse cx="203" cy="132" rx="8" ry="12" fill="url(#skinHw)"/>
  <!-- lông mày nhíu lo lắng -->
  <path d="M119,106 Q131,113 143,108" stroke="#3a2e22" stroke-width="4" fill="none" stroke-linecap="round"/>
  <path d="M157,108 Q169,113 181,106" stroke="#3a2e22" stroke-width="4" fill="none" stroke-linecap="round"/>
  <ellipse cx="130" cy="128" rx="7.5" ry="8.5" fill="#3a2e22"/>
  <ellipse cx="170" cy="128" rx="7.5" ry="8.5" fill="#3a2e22"/>
  <path d="M148,138 Q145,150 150,154" stroke="#c0906a" stroke-width="3" fill="none" stroke-linecap="round"/>
  <!-- miệng hơi mím, lo âu -->
  <path d="M136,166 Q150,163 164,166" stroke="#9a4a4a" stroke-width="4" fill="none" stroke-linecap="round"/>
  <circle cx="130" cy="128" r="14" fill="none" stroke="#8a7a5a" stroke-width="2.5"/>
  <circle cx="170" cy="128" r="14" fill="none" stroke="#8a7a5a" stroke-width="2.5"/>
  <line x1="144" y1="128" x2="156" y2="128" stroke="#8a7a5a" stroke-width="2.5"/>
</svg>
